<svg width="150" height="150" viewBox="0 0 150 150" fill="none" xmlns="http://www.w3.org/2000/svg">
<circle cx="75" cy="75" r="75" fill="#1E2124"/>
<path d="M46 55C44.5 64.5 38.5 72.5 28 74C18 74 11.5 69 11.5 57C13 47.5 20.3873 38 29.5 38C38.6127 38 47 45.5 46 55Z" fill="#D8E1E4"/>
<path d="M144 57C144 66.9411 135 74 125.5 74.5C115.5 73.5 107 66.9411 107 57C107 47.0589 115.283 39 125.5 39C134.5 39 143 48 144 57Z" fill="#D8E1E4"/>
<path d="M41.9366 55.3333C40.7654 61.6667 36.0808 67 27.8827 68C20.075 68 15 64.6667 15 56.6667C16.1712 50.3333 21.9389 44 29.0539 44C36.1688 44 42.7173 49 41.9366 55.3333Z" fill="black"/>
<path d="M30.8688 63.066C31.1459 66.4952 30.5674 69.511 28.8522 70.3297C27.1383 70.5999 25.7432 68.992 25.0684 64.7115C24.7913 61.2823 25.5232 57.694 27.085 57.4478C28.6468 57.2016 30.506 59.6503 30.8688 63.066Z" fill="white"/>
<path d="M138.937 56.3333C137.765 62.6667 133.081 68 124.883 69C117.075 69 112 65.6667 112 57.6667C113.171 51.3333 118.939 45 126.054 45C133.169 45 139.717 50 138.937 56.3333Z" fill="black"/>
<path d="M128.228 63.6734C128.001 67.4027 127.091 70.5431 125.5 71.1319C123.985 71.1319 123 69.1691 123 64.4585C123.227 60.7293 124.347 57 125.728 57C127.108 57 128.379 59.9441 128.228 63.6734Z" fill="white"/>
<path d="M110 90.9997C110 106.464 98.1141 102.5 70.4999 102.5C42.8856 102.5 29.5 105 30.4999 94.5C35.4999 78.5003 50.9999 66.874 79.4999 64.4997C91.4999 63.5 110 73.9997 110 90.9997Z" fill="#A35A53"/>
</svg>
